<svg width="144" height="48" viewBox="0 0 144 48" fill="none" xmlns="http://www.w3.org/2000/svg">
<path fill-rule="evenodd" clip-rule="evenodd" d="M20.982 9.50952H8.3069C2.33729 9.50952 0.15625 11.6925 0.15625 17.6612V30.3379C0.15625 36.3067 2.33729 38.4907 8.3069 38.4907H20.9829C26.9506 38.4907 29.1374 36.3067 29.1374 30.3379V17.6612C29.1317 11.6925 26.9506 9.50952 20.982 9.50952Z" fill="#C8102E"/>
<path d="M5.82681 23.974H6.63063V27.7564H5.82681V26.2188H4.01376V27.7564H3.21094V23.974H4.01376V25.4996H5.82681V23.974ZM10.353 26.1395C10.353 26.7545 10.0325 27.0818 9.45192 27.0818C8.87139 27.0818 8.54688 26.7446 8.54688 26.1127V23.974H7.74505V26.1375C7.74505 27.2068 8.36231 27.8109 9.442 27.8109C10.5237 27.8109 11.1558 27.189 11.1558 26.1047V23.9671H10.353V26.1395ZM19.6356 26.574L18.7385 23.974H18.0815L17.1824 26.574L16.3032 23.975H15.4468L16.8272 27.7564H17.4921L18.3931 25.2735L19.2922 27.7564H19.964L21.3405 23.976H20.5089L19.6356 26.574ZM22.7853 26.1286H24.2461V25.4411H22.7853V24.6654H24.906V23.977H21.9924V27.7544H24.9775V27.065H22.7843L22.7853 26.1286ZM25.9401 27.7504H26.733V23.974H25.9401V27.7504ZM12.7436 26.9668L12.3854 27.7544H11.5637L13.3083 23.974H14.0178L15.7544 27.7534H14.9129L14.5566 26.9668H12.7436ZM13.0413 26.2853H14.251L13.6407 24.9312L13.0413 26.2853ZM14.9715 19.159C12.1889 19.159 9.93322 17.0044 9.93322 14.3469H10.6457C10.614 15.8448 11.4317 17.2415 12.7833 17.9994C13.453 18.3721 14.2069 18.5677 14.9734 18.5677C15.74 18.5677 16.4938 18.3721 17.1636 17.9994C18.5162 17.2415 19.3339 15.8438 19.3011 14.3469H20.0147C20.0119 14.9849 19.8794 15.6157 19.6252 16.201C19.371 16.7862 19.0005 17.3137 18.536 17.7514C17.5729 18.661 16.2965 19.1644 14.9715 19.159Z" fill="white"/>
<path d="M52.9943 25.4754H47.4362L46.0769 28.9825H43.6289L49.0698 15.89H51.3796L56.9468 28.9825H54.3836L52.9943 25.4744V25.4754ZM48.1363 23.6997H52.2801L50.7947 19.9495C50.5913 19.4337 50.39 18.8615 50.1917 18.234C50.0114 18.7874 49.8181 19.3536 49.6077 19.9317L48.1373 23.6997H48.1363ZM58.0546 21.6185C58.0546 20.8972 58.0296 20.1007 57.9795 19.2321H60.2011C60.2843 19.6432 60.3414 20.0582 60.3744 20.4752C61.2939 19.5275 62.3477 19.0542 63.5366 19.0542C64.987 19.0325 66.3072 19.8418 66.8751 21.0997C67.2367 21.8103 67.418 22.7095 67.418 23.7975C67.4464 24.8044 67.234 25.8038 66.798 26.7146C66.4225 27.4841 65.8198 28.1235 65.0691 28.5487C64.2898 28.9736 63.4014 29.191 62.5009 29.1742C61.7966 29.1726 61.0972 29.0591 60.4295 28.8382V32.8582L58.0616 33.0479L58.0546 21.6185ZM64.2788 26.601C64.7596 25.9903 65.002 25.097 65.002 23.921C65.002 22.831 64.8017 22.0415 64.403 21.5513C64.215 21.3128 63.9724 21.1217 63.695 20.9935C63.4177 20.8654 63.1135 20.8039 62.8074 20.8142C62.3632 20.8104 61.925 20.9156 61.5323 21.1205C61.1216 21.3419 60.747 21.6195 60.4215 21.9437V27.1652C60.6849 27.2818 60.9624 27.3688 61.2468 27.4222C61.5513 27.4854 61.8629 27.517 62.1744 27.517C63.0959 27.517 63.797 27.2117 64.2778 26.601H64.2788ZM68.9285 21.6185C68.9285 20.8972 68.9024 20.1007 68.8513 19.2321H71.075C71.1581 19.6432 71.2152 20.0582 71.2463 20.4752C72.1678 19.5275 73.2215 19.0542 74.4085 19.0542C75.8598 19.0315 77.181 19.8408 77.749 21.0997C78.1085 21.8103 78.2888 22.7095 78.2898 23.7975C78.3189 24.8043 78.1071 25.8036 77.6718 26.7146C77.2957 27.4842 76.6923 28.1236 75.941 28.5487C75.1627 28.9746 74.2742 29.191 73.3748 29.1742C72.6702 29.1727 71.9704 29.0592 71.3024 28.8382V32.8582L68.9285 33.0558V21.6185ZM75.1527 26.601C75.6335 25.9903 75.8749 25.097 75.8749 23.921C75.8749 22.831 75.6755 22.0415 75.2769 21.5513C75.0889 21.3128 74.8462 21.1217 74.5689 20.9935C74.2915 20.8654 73.9874 20.8039 73.6813 20.8142C73.237 20.8102 72.7988 20.9155 72.4062 21.1205C71.997 21.3397 71.6227 21.617 71.2954 21.9437V27.1652C71.5578 27.2818 71.8342 27.3688 72.1187 27.4222C72.4242 27.4854 72.7357 27.517 73.0482 27.517C73.9727 27.517 74.6749 27.2117 75.1557 26.601H75.1527ZM82.7582 28.3619C81.7567 27.8495 80.935 27.0513 80.4003 26.0713C79.8524 25.0772 79.578 23.9032 79.578 22.5484C79.578 21.079 79.8915 19.8309 80.5195 18.8032C81.1297 17.7988 82.0284 16.9958 83.1017 16.4958C84.2482 15.9685 85.5009 15.7043 86.7658 15.723C88.2553 15.7174 89.7278 16.0352 91.0788 16.6539L90.4739 18.3704C89.3491 17.8353 88.1204 17.5461 86.8719 17.5225C85.9907 17.5026 85.1186 17.7028 84.3368 18.1046C83.6098 18.4933 83.019 19.09 82.642 19.8161C82.2185 20.6638 82.0115 21.6008 82.039 22.5455C82.023 23.3943 82.1792 24.2382 82.5028 25.0307C82.7932 25.7324 83.3061 26.3312 83.9692 26.7482C84.6363 27.1682 85.4776 27.3797 86.4933 27.3806C86.9556 27.3807 87.4172 27.3444 87.8736 27.2719C88.3143 27.2048 88.747 27.099 89.1677 26.9557V24.3015H85.9654V22.5593H91.4745V28.0635C90.6752 28.4153 89.8388 28.6851 88.9794 28.8689C88.125 29.0527 87.2526 29.1455 86.3761 29.1475C85.1231 29.1818 83.8808 28.912 82.7582 28.3619ZM100.001 28.9825C99.9124 28.5563 99.8581 28.1237 99.8392 27.689C99.4426 28.1228 98.9588 28.4775 98.4159 28.7335C97.7989 29.0262 97.1212 29.1727 96.4366 29.1614C95.8781 29.1683 95.3247 29.0564 94.814 28.8333C94.3348 28.6221 93.9295 28.2759 93.6491 27.8382C93.3502 27.3503 93.2015 26.7873 93.2214 26.2176C93.2061 25.7823 93.2965 25.3498 93.4851 24.956C93.6736 24.5622 93.9547 24.2185 94.3051 23.9536C95.0263 23.3904 96.2303 23.1097 97.9171 23.1077C98.5471 23.1077 99.1761 23.1502 99.8002 23.2362V23.0465C99.8002 22.1848 99.6059 21.577 99.2162 21.2243C98.8266 20.8715 98.2677 20.6936 97.5385 20.6906C96.9921 20.6963 96.4483 20.7663 95.9188 20.8991C95.4009 21.0197 94.8971 21.1857 94.4123 21.3962L94.0357 19.7697C94.5748 19.5532 95.1331 19.3868 95.7034 19.2726C96.4211 19.119 97.1537 19.0434 97.888 19.0473C98.6657 19.027 99.4399 19.1573 100.167 19.4307C100.804 19.6965 101.323 20.162 101.634 20.7499C101.986 21.3725 102.161 22.2124 102.161 23.2658V27.1425C102.161 27.5457 102.186 28.1564 102.239 28.9766L100.001 28.9825ZM98.5892 27.1761C99.0427 26.98 99.4528 26.698 99.7962 26.346V24.5347C99.2716 24.4762 98.7444 24.4432 98.2166 24.4359C97.239 24.4359 96.5639 24.5841 96.1902 24.8825C96.0066 25.0254 95.8597 25.2091 95.7615 25.4186C95.6633 25.6281 95.6167 25.8575 95.6253 26.0881C95.6253 26.5723 95.7605 26.9271 96.032 27.1544C96.3395 27.4014 96.7351 27.5279 97.1388 27.5091C97.6411 27.5029 98.136 27.389 98.5892 27.1751V27.1761ZM104.223 26.6435V15.1212L106.581 14.9434V26.2462C106.581 26.6612 106.656 26.9577 106.806 27.1336C106.898 27.2256 107.011 27.2963 107.134 27.3407C107.258 27.3851 107.39 27.4021 107.521 27.3905C107.731 27.3806 107.941 27.348 108.142 27.2917L108.422 28.8896C108.156 28.9836 107.882 29.0514 107.602 29.0922C107.299 29.1416 106.994 29.1673 106.686 29.1683C105.045 29.1633 104.223 28.3224 104.223 26.6435ZM110.118 26.6435V15.1212L112.474 14.9434V26.2462C112.474 26.6612 112.549 26.9577 112.7 27.1336C112.793 27.2256 112.905 27.2964 113.028 27.3408C113.151 27.3852 113.283 27.4022 113.414 27.3905C113.625 27.3806 113.834 27.348 114.038 27.2917L114.314 28.8896C114.048 28.9838 113.774 29.0516 113.495 29.0922C113.192 29.1416 112.887 29.1673 112.579 29.1683C110.936 29.1633 110.117 28.3224 110.118 26.6435ZM124.127 24.3924H117.361C117.471 26.434 118.503 27.4557 120.457 27.4557C120.958 27.4528 121.459 27.3965 121.947 27.2878C122.447 27.1791 122.935 27.0289 123.409 26.8411L123.926 28.3678C122.701 28.9112 121.369 29.1821 120.026 29.1614C118.928 29.1614 118.001 28.9657 117.246 28.5754C116.515 28.2022 115.922 27.6108 115.551 26.8856C115.15 26.0546 114.957 25.1412 114.986 24.2214C114.96 23.2597 115.166 22.3057 115.589 21.4387C115.961 20.6969 116.546 20.0795 117.271 19.6639C118.029 19.2441 118.888 19.0319 119.757 19.0493C120.734 19.0493 121.55 19.2647 122.205 19.6955C122.851 20.1158 123.357 20.7141 123.66 21.416C123.984 22.1739 124.142 22.9852 124.127 23.8024V24.3924ZM121.817 22.9714C121.773 22.1937 121.565 21.6116 121.196 21.2223C121.004 21.027 120.773 20.874 120.516 20.7735C120.26 20.673 119.985 20.6272 119.71 20.6393C119.431 20.6304 119.154 20.6781 118.895 20.7794C118.636 20.8808 118.4 21.0335 118.203 21.2282C117.803 21.6185 117.542 22.1996 117.422 22.9714H121.817ZM126.034 21.6808C126.034 21.1442 126.008 20.328 125.958 19.2321H128.172C128.211 19.5038 128.246 19.827 128.282 20.2035C128.318 20.579 128.34 20.8873 128.353 21.1215C128.591 20.741 128.862 20.3803 129.163 20.0414C129.424 19.7529 129.738 19.5127 130.092 19.3319C130.465 19.1431 130.882 19.0483 131.304 19.0562C131.622 19.0503 131.939 19.0858 132.245 19.1649L131.949 21.0978C131.699 21.0285 131.441 20.9952 131.182 20.999C130.666 20.9874 130.159 21.1271 129.724 21.4002C129.21 21.7661 128.76 22.2132 128.393 22.7233V28.9855H126.033V21.6808H126.034ZM133.663 32.9698C133.375 32.9255 133.09 32.8608 132.811 32.7761L133.24 31.1506C133.4 31.1901 133.602 31.2316 133.845 31.2711C134.072 31.3097 134.303 31.3294 134.534 31.3304C135.581 31.3304 136.367 30.696 136.892 29.4242L137.044 29.0685L133.231 19.239H135.771L137.686 24.7333C137.937 25.4399 138.138 26.1612 138.291 26.8925C138.47 26.181 138.681 25.4774 138.924 24.7778L140.868 19.2321H143.252L139.449 29.108C139.162 29.9069 138.773 30.6661 138.289 31.367C137.919 31.8996 137.413 32.3374 136.819 32.6398C136.178 32.9322 135.477 33.0743 134.772 33.0548C134.4 33.0565 134.029 33.0281 133.663 32.9698Z" fill="#ABADBA"/>
</svg>
