<svg width="133" height="48" viewBox="0 0 133 48" fill="none" xmlns="http://www.w3.org/2000/svg">
<path fill-rule="evenodd" clip-rule="evenodd" d="M20.3903 9.50903C20.6615 11.268 19.916 12.987 18.9535 14.2129C17.9098 15.5189 16.1205 16.5316 14.3989 16.4916C14.0871 14.7992 14.9005 13.0669 15.8764 11.8943C16.9609 10.6017 18.8044 9.61564 20.3903 9.50903ZM25.584 34.2924C26.465 32.9598 26.8039 32.2803 27.4952 30.7745C22.4662 28.9089 21.6529 21.913 26.6277 19.208C25.1095 17.3424 22.9813 16.263 20.9616 16.263C19.5031 16.263 18.5055 16.6327 17.6001 16.9683C16.8478 17.247 16.1592 17.5023 15.3226 17.5023C14.4197 17.5023 13.6181 17.2218 12.7776 16.9277C11.8514 16.6036 10.8781 16.263 9.66996 16.263C7.40621 16.263 5.00699 17.6222 3.47517 19.9275C1.3199 23.1789 1.68586 29.2953 5.1696 34.5056C6.41672 36.3712 8.08402 38.4766 10.2529 38.4899C11.1482 38.4961 11.7473 38.2342 12.3953 37.9509C13.1405 37.6251 13.9503 37.2711 15.3496 37.2639C16.7633 37.2568 17.5581 37.6155 18.2919 37.9466C18.9232 38.2315 19.5094 38.4961 20.4058 38.4899C22.5882 38.4766 24.3368 36.1579 25.584 34.2924Z" fill="white"/>
<path fill-rule="evenodd" clip-rule="evenodd" d="M132.732 27.7833H125.303C125.332 28.7269 125.692 29.5492 126.383 30.1018C127.002 30.587 127.823 30.8162 128.816 30.8162C129.925 30.8162 130.918 30.6409 131.825 30.304L132.213 31.9079C131.163 32.3392 129.91 32.5414 128.47 32.5414C126.743 32.5414 125.39 32.0697 124.397 31.1127C123.418 30.1557 122.914 28.8887 122.914 27.2846C122.914 25.7076 123.374 24.4002 124.296 23.3488C125.261 22.23 126.57 21.6774 128.197 21.6774C129.81 21.6774 131.019 22.23 131.839 23.3488C132.501 24.2384 132.833 25.3841 132.833 26.6781C132.818 27.0959 132.789 27.5138 132.732 27.7833ZM122.165 23.9554C122.021 23.9149 121.633 23.9014 121.359 23.9014C120.481 23.9014 119.804 24.2114 119.329 24.818C118.911 25.3571 118.695 26.0446 118.695 26.8803V32.2314H116.248V25.1954C116.248 23.9957 116.19 22.9309 116.147 21.8526H118.307L118.393 24.0092H118.465C118.724 23.3353 119.142 22.7287 119.703 22.3109C120.251 21.9335 120.869 21.7313 121.518 21.7313C121.748 21.7313 122.007 21.7178 122.151 21.7448V23.9554H122.165ZM113.21 31.0049C112.188 32.0562 110.821 32.5954 109.122 32.5954C107.481 32.5954 106.17 32.0832 105.206 31.0722C104.241 30.0613 103.752 28.7673 103.752 27.2308C103.752 25.6132 104.256 24.2924 105.249 23.2544C106.257 22.2165 107.596 21.7043 109.295 21.7043C110.936 21.7043 112.245 22.203 113.239 23.2275C114.189 24.2114 114.664 25.4919 114.664 27.042C114.679 28.6595 114.189 29.967 113.21 31.0049ZM103.018 23.7397H100.427V28.7269C100.427 30.0209 100.858 30.6544 101.823 30.6544C102.269 30.6544 102.6 30.6274 102.888 30.5465L102.946 32.2989C102.456 32.4741 101.809 32.5549 101.016 32.5549C100.037 32.5549 99.2455 32.2854 98.6985 31.7192C98.137 31.1666 97.849 30.223 97.849 28.9021V23.7397H96.2659V21.8526H97.849V20.006L100.441 19.3186V21.8526H103.032V23.7397H103.018ZM94.3079 31.3014C93.2999 32.1506 91.8888 32.5684 90.0893 32.5684C88.4193 32.5684 87.0952 32.2719 86.0872 31.6654L86.6632 29.7378C87.7427 30.3309 88.9382 30.6409 90.2333 30.6409C91.1688 30.6409 91.8888 30.4387 92.4214 30.0478C92.9403 29.657 93.1993 29.1313 93.1993 28.4573C93.1993 27.8778 92.9829 27.379 92.5654 26.9746C92.1334 26.5703 91.4288 26.2063 90.4353 25.8559C87.7282 24.9124 86.3752 23.5375 86.3752 21.7178C86.3752 20.5316 86.8507 19.5477 87.8007 18.7929C88.7507 18.0381 90.0177 17.6606 91.6008 17.6606C93.0119 17.6606 94.1783 17.8898 95.1139 18.3481L94.4944 20.2351C93.6168 19.7903 92.6378 19.5746 91.5293 19.5746C90.6508 19.5746 89.9743 19.7768 89.4852 20.1678C89.0677 20.5316 88.8657 20.963 88.8657 21.4752C88.8657 22.0413 89.0958 22.513 89.5713 22.8905C89.9888 23.2275 90.7377 23.6049 91.8173 24.0092C93.1559 24.508 94.1204 25.1011 94.7543 25.775C95.3729 26.4489 95.6899 27.2846 95.6899 28.2821C95.6754 29.5222 95.2144 30.533 94.3079 31.3014ZM79.9975 31.2205C79.0765 32.1371 77.9245 32.5954 76.5569 32.5954C75.0883 32.5954 74.0949 32.0967 73.3751 31.1127V36.6795H70.9277V25.3437C70.9277 24.2249 70.8845 23.2005 70.8269 21.8526H73.0008L73.1447 23.6049H73.1879C74.023 22.3918 75.2754 21.7178 76.9454 21.7178C78.2559 21.7178 79.3645 22.1896 80.242 23.1735C81.1205 24.144 81.567 25.4246 81.567 27.0151C81.538 28.7943 81.0345 30.1827 79.9975 31.2205ZM67.746 31.2205C66.8247 32.1371 65.673 32.5954 64.3052 32.5954C62.8224 32.5954 61.8435 32.0967 61.1236 31.1127V36.6795H58.6762V25.3437C58.6762 24.2249 58.6187 23.2005 58.5611 21.8526H60.7349L60.8788 23.6049H60.9221C61.7571 22.3918 63.0096 21.7178 64.6939 21.7178C66.0041 21.7178 67.0982 22.1896 67.9908 23.1735C68.8689 24.144 69.3153 25.4246 69.3153 27.0151C69.3009 28.7943 68.7826 30.1827 67.746 31.2205ZM54.5012 32.2314L53.0615 28.053H48.0228L46.6407 32.2314H44.0781L49.0449 17.8089H52.1258L57.1358 32.2314H54.5012ZM127.996 23.2814C127.19 23.2814 126.527 23.6722 126.023 24.2924C125.606 24.7911 125.361 25.3437 125.289 26.1524H130.443C130.457 25.3437 130.299 24.8045 129.968 24.3057C129.551 23.6722 128.888 23.2814 127.996 23.2814ZM50.5278 19.8308H50.4846C50.3262 20.5047 50.0815 21.4078 49.7504 22.6075L48.469 26.4354H52.6152L51.3196 22.6075C51.1756 22.2165 50.9021 21.1787 50.5278 19.8308ZM76.1249 23.551C75.5058 23.551 74.9587 23.7397 74.4693 24.1171C73.9654 24.508 73.6343 24.9932 73.4903 25.6132C73.4183 25.8963 73.3751 26.1389 73.3751 26.3276V28.053C73.3751 28.8078 73.6343 29.4548 74.1237 29.9805C74.6132 30.4927 75.2754 30.7622 76.067 30.7622C77.0034 30.7622 77.737 30.4252 78.2559 29.7513C78.774 29.0773 79.033 28.1878 79.033 27.0825C79.033 26.0716 78.7885 25.2359 78.2985 24.5754C77.7515 23.9014 77.0315 23.551 76.1249 23.551ZM109.208 23.4027C108.215 23.4027 107.466 23.8205 106.948 24.6427C106.502 25.3302 106.285 26.1524 106.285 27.1498C106.285 28.1068 106.502 28.9291 106.948 29.6165C107.481 30.4387 108.229 30.8565 109.193 30.8565C110.13 30.8565 110.878 30.4387 111.41 29.5895C111.871 28.9021 112.101 28.0665 112.101 27.1094C112.101 26.1524 111.886 25.3302 111.439 24.6427C110.921 23.8071 110.172 23.4027 109.208 23.4027ZM63.8734 23.551C63.2687 23.551 62.7073 23.7397 62.2178 24.1171C61.7139 24.508 61.3972 24.9932 61.2389 25.6132C61.1669 25.8963 61.1236 26.1389 61.1236 26.3276V28.053C61.1236 28.8078 61.3684 29.4548 61.8723 29.9805C62.3618 30.4927 63.0096 30.7622 63.8158 30.7622C64.7515 30.7622 65.4858 30.4252 66.0041 29.7513C66.5224 29.0773 66.7815 28.1878 66.7815 27.0825C66.7815 26.0716 66.5368 25.2359 66.0473 24.5754C65.5002 23.9014 64.7803 23.551 63.8734 23.551Z" fill="#ABADBA"/>
</svg>
