<svg width="142" height="48" viewBox="0 0 142 48" fill="none" xmlns="http://www.w3.org/2000/svg">
<path d="M2.37244 9.552C2.0561 9.66219 1.80859 9.95153 1.80859 10.3372V37.6568C1.80859 38.0287 2.04237 38.3181 2.35863 38.4421L16.8391 24.0039L2.37244 9.552Z" fill="#00D6FF"/>
<path d="M20.924 19.9242L3.04698 9.61913C2.82693 9.49514 2.57942 9.4814 2.35938 9.5503L16.8399 23.9884L20.924 19.9242Z" fill="#00F076"/>
<path d="M3.04698 38.3759L20.924 28.0708L16.8399 23.9929L2.35938 38.4448C2.57942 38.5137 2.82693 38.5137 3.04698 38.3759Z" fill="#FF3A44"/>
<path d="M20.9378 28.0662L26.7547 24.7184C27.3048 24.4015 27.3048 23.6025 26.7547 23.2857L20.924 19.9241L16.8398 23.9883L20.9378 28.0662Z" fill="#FFD000"/>
<path d="M74.6951 21.7838C71.9233 21.7838 69.7176 23.7181 69.7176 26.3984C69.7176 28.9683 71.9085 31.0131 74.6951 31.0131C77.4824 31.0131 79.6735 29.0788 79.6735 26.3984C79.6583 23.6076 77.4671 21.7838 74.6951 21.7838ZM74.6951 29.0788C73.1901 29.0788 71.9233 27.9044 71.9233 26.2879C71.9233 24.6852 73.1901 23.497 74.6951 23.497C76.2004 23.497 77.4671 24.5747 77.4671 26.2879C77.4671 27.8906 76.186 29.0788 74.6951 29.0788ZM63.9351 21.7838C61.1631 21.7838 58.9574 23.7181 58.9574 26.3984C58.9574 28.9683 61.1481 31.0131 63.9351 31.0131C66.722 31.0131 68.9129 29.0788 68.9129 26.3984C68.9129 23.6076 66.7071 21.7838 63.9351 21.7838ZM63.9351 29.0788C62.4299 29.0788 61.1631 27.9044 61.1631 26.2879C61.1631 24.6852 62.4299 23.497 63.9351 23.497C65.4403 23.497 66.7071 24.5747 66.7071 26.2879C66.7071 27.8906 65.4403 29.0788 63.9351 29.0788ZM51.1032 23.1792V25.1135H56.081C55.9618 26.1912 55.4997 27.0478 54.9185 27.5728C54.218 28.2222 53.0705 28.9683 51.1032 28.9683C47.9884 28.9683 45.6634 26.7162 45.6634 23.8286C45.6634 20.941 48.0927 18.6889 51.1032 18.6889C52.7277 18.6889 53.9945 19.3383 54.9185 20.0844L56.4238 18.6889C55.157 17.6112 53.5325 16.7546 51.2224 16.7546C47.0643 16.7546 43.4727 19.9738 43.4727 23.8286C43.4727 27.6833 47.0495 30.9026 51.2224 30.9026C53.5325 30.9026 55.157 30.2532 56.543 28.8716C57.929 27.5866 58.391 25.7629 58.391 24.3674C58.391 23.9391 58.391 23.5108 58.2718 23.193L51.1032 23.1792ZM103.593 24.6714C103.131 23.5937 101.968 21.7838 99.4348 21.7838C96.8869 21.7838 94.815 23.6076 94.815 26.3984C94.815 28.9683 96.9012 31.0131 99.6733 31.0131C101.864 31.0131 103.25 29.7282 103.727 28.9821L102.103 27.9044C101.522 28.6505 100.836 29.1893 99.6733 29.1893C98.5114 29.1893 97.8256 28.761 97.2446 27.7939L103.831 25.224L103.593 24.6714ZM96.8869 26.1774C96.8869 24.4642 98.3921 23.497 99.4348 23.497C100.24 23.497 101.059 23.9253 101.283 24.4642L96.8869 26.1774ZM91.4467 30.571H93.6522V17.1691H91.462V30.571H91.4467ZM87.9897 22.7509C87.4079 22.2121 86.4844 21.6732 85.3369 21.6732C82.9073 21.6732 80.5969 23.7042 80.5969 26.2879C80.5969 28.8716 82.788 30.792 85.3369 30.792C86.4988 30.792 87.4231 30.2532 87.8848 29.7143H88.0041V30.3637C88.0041 32.077 86.9614 33.0441 85.3512 33.0441C84.0844 33.0441 83.161 32.1875 82.9225 31.4414L81.0739 32.1875C81.6557 33.3619 83.0417 34.8678 85.4705 34.8678C88.0193 34.8678 90.0903 33.4724 90.0903 30.1565V22.0049H88.0041L87.9897 22.7509ZM85.4409 29.0788C83.9356 29.0788 82.6688 27.9044 82.6688 26.2879C82.6688 24.6852 83.9356 23.497 85.4409 23.497C86.9461 23.497 88.0937 24.6714 88.0937 26.2879C88.0937 27.8906 86.9461 29.0788 85.4409 29.0788ZM113.653 17.1691H108.452V30.571H110.642V25.528H113.653C116.082 25.528 118.392 23.9253 118.392 21.3417C118.392 18.758 116.082 17.1691 113.653 17.1691ZM113.772 23.6076H110.642V18.9929H113.772C115.397 18.9929 116.321 20.2778 116.321 21.2449C116.187 22.4332 115.263 23.6076 113.772 23.6076ZM127.066 21.6732C125.441 21.6732 123.832 22.3226 123.251 23.7042L125.218 24.4503C125.68 23.7042 126.381 23.4832 127.185 23.4832C128.348 23.4832 129.376 24.1325 129.495 25.1964V25.3069C129.153 25.0859 128.229 24.7681 127.304 24.7681C125.218 24.7681 123.146 25.8458 123.146 27.7663C123.146 29.59 124.876 30.7644 126.723 30.7644C128.229 30.7644 128.915 30.115 129.495 29.4795H129.615V30.5572H131.701V25.4175C131.448 23.0687 129.495 21.6732 127.066 21.6732ZM126.827 29.0788C126.127 29.0788 125.099 28.761 125.099 27.9044C125.099 26.8267 126.366 26.5089 127.409 26.5089C128.333 26.5089 128.795 26.73 129.376 26.9372C129.138 28.2084 127.99 29.0788 126.827 29.0788ZM138.974 22.0049L136.545 27.7939H136.426L133.877 22.0049H131.567L135.382 30.1565L133.192 34.6468H135.382L141.284 22.0049H138.974ZM119.54 30.571H121.731V17.1691H119.54V30.571Z" fill="#ABADBA"/>
</svg>
