<svg width="136" height="48" viewBox="0 0 136 48" fill="none" xmlns="http://www.w3.org/2000/svg">
<path d="M21.5792 13.2364C21.6784 13.0617 21.5594 12.8215 21.3612 12.8215H17.2576C17.0594 12.8215 16.9404 13.0399 17.0395 13.2364L19.0814 17.1444C19.1805 17.319 19.4184 17.319 19.5175 17.1444L21.5792 13.2364Z" fill="#C8102E"/>
<path d="M17.2388 35.1564C17.1396 35.3311 17.2586 35.5713 17.4568 35.5713H21.5604C21.7586 35.5713 21.8776 35.3529 21.7785 35.1564L19.7168 31.2484C19.6176 31.0738 19.3798 31.0738 19.2806 31.2484L17.2189 35.1564H17.2388Z" fill="#C8102E"/>
<path d="M24.631 17.7343C24.8292 17.7343 24.9482 17.516 24.8491 17.3195L22.7874 13.4115C22.6882 13.2369 22.4504 13.2369 22.3512 13.4115L20.2895 17.3195C20.1904 17.4942 20.3094 17.7343 20.5076 17.7343H24.6112H24.631Z" fill="#C8102E"/>
<path d="M22.3509 22.8643C22.4501 23.039 22.688 23.039 22.7871 22.8643L24.8488 18.9563C24.9479 18.7817 24.829 18.5415 24.6307 18.5415H20.5271C20.3289 18.5415 20.2099 18.7598 20.3091 18.9563L22.3708 22.8643H22.3509Z" fill="#C8102E"/>
<path d="M27.7248 23.6506C27.923 23.6506 28.0419 23.4323 27.9428 23.2358L25.8811 19.3278C25.782 19.1531 25.5441 19.1531 25.445 19.3278L23.3833 23.2358C23.2842 23.4104 23.4031 23.6506 23.6013 23.6506H27.7049H27.7248Z" fill="#C8102E"/>
<path d="M25.4642 28.7811C25.5633 28.9557 25.8012 28.9557 25.9004 28.7811L27.9621 24.8731C28.0612 24.6984 27.9422 24.4583 27.744 24.4583H23.6404C23.4422 24.4583 23.3232 24.6766 23.4223 24.8731L25.484 28.7811H25.4642Z" fill="#C8102E"/>
<path d="M20.3091 29.1743C20.2099 29.3489 20.3289 29.5891 20.5271 29.5891H24.6307C24.829 29.5891 24.9479 29.3708 24.8488 29.1743L22.7871 25.2662C22.688 25.0916 22.4501 25.0916 22.3509 25.2662L20.2892 29.1743H20.3091Z" fill="#C8102E"/>
<path d="M22.3509 34.6978C22.4501 34.8725 22.688 34.8725 22.7871 34.6978L24.8488 30.7898C24.9479 30.6152 24.829 30.375 24.6307 30.375H20.5271C20.3289 30.375 20.2099 30.5933 20.3091 30.7898L22.3708 34.6978H22.3509Z" fill="#C8102E"/>
<path d="M13.4308 12.9956C13.5299 12.821 13.411 12.5808 13.2127 12.5808H9.10916C8.91092 12.5808 8.79198 12.7991 8.8911 12.9956L10.933 16.9036C11.0321 17.0783 11.27 17.0783 11.3691 16.9036L13.4308 12.9956Z" fill="#2A2CD6"/>
<path d="M8.79344 35.1342C8.69432 35.3089 8.81326 35.549 9.0115 35.549H13.1151C13.3133 35.549 13.4323 35.3307 13.3331 35.1342L11.2714 31.2262C11.1723 31.0515 10.9344 31.0515 10.8353 31.2262L8.77362 35.1342H8.79344Z" fill="#2A2CD6"/>
<path d="M16.424 17.7126C16.6222 17.7126 16.7412 17.4943 16.642 17.2978L14.5803 13.3898C14.4812 13.2151 14.2433 13.2151 14.1442 13.3898L12.0825 17.2978C11.9834 17.4725 12.1023 17.7126 12.3006 17.7126H16.4041H16.424Z" fill="#2A2CD6"/>
<path d="M14.1439 22.8209C14.243 22.9955 14.4809 22.9955 14.58 22.8209L16.6417 18.9129C16.7409 18.7382 16.6219 18.498 16.4237 18.498H12.3201C12.1219 18.498 12.0029 18.7164 12.102 18.9129L14.1637 22.8209H14.1439Z" fill="#2A2CD6"/>
<path d="M19.5177 23.6286C19.716 23.6286 19.8349 23.4103 19.7358 23.2138L17.6741 19.3058C17.575 19.1311 17.3371 19.1311 17.238 19.3058L15.1763 23.2138C15.0771 23.3885 15.1961 23.6286 15.3943 23.6286H19.4979H19.5177Z" fill="#2A2CD6"/>
<path d="M17.2572 28.7371C17.3563 28.9118 17.5942 28.9118 17.6933 28.7371L19.755 24.8291C19.8541 24.6545 19.7352 24.4143 19.537 24.4143H15.4334C15.2351 24.4143 15.1162 24.6326 15.2153 24.8291L17.277 28.7371H17.2572Z" fill="#2A2CD6"/>
<path d="M12.102 29.1296C12.0029 29.3042 12.1219 29.5444 12.3201 29.5444H16.4237C16.6219 29.5444 16.7409 29.3261 16.6417 29.1296L14.58 25.2216C14.4809 25.0469 14.243 25.0469 14.1439 25.2216L12.0822 29.1296H12.102Z" fill="#2A2CD6"/>
<path d="M14.1439 34.6546C14.243 34.8293 14.4809 34.8293 14.58 34.6546L16.6417 30.7466C16.7409 30.5719 16.6219 30.3318 16.4237 30.3318H12.3201C12.1219 30.3318 12.0029 30.5501 12.102 30.7466L14.1637 34.6546H14.1439Z" fill="#2A2CD6"/>
<path d="M5.54018 12.8433C5.6393 12.6686 5.52036 12.4285 5.32212 12.4285H1.21854C1.0203 12.4285 0.901351 12.6468 1.00047 12.8433L3.04235 16.7513C3.14147 16.926 3.37936 16.926 3.47848 16.7513L5.54018 12.8433Z" fill="#EDEDED"/>
<path d="M0.60594 34.9814C0.50682 35.1561 0.625764 35.3962 0.824005 35.3962H4.92758C5.12583 35.3962 5.24477 35.1779 5.14565 34.9814L3.08395 31.0734C2.98483 30.8987 2.74694 30.8987 2.64782 31.0734L0.586116 34.9814H0.60594Z" fill="#EDEDED"/>
<path d="M8.65444 17.5591C8.85268 17.5591 8.97162 17.3407 8.8725 17.1442L6.8108 13.2362C6.71168 13.0616 6.47379 13.0616 6.37467 13.2362L4.31297 17.1442C4.21385 17.3189 4.3328 17.5591 4.53104 17.5591H8.63462H8.65444Z" fill="#EDEDED"/>
<path d="M5.96032 22.6671C6.05944 22.8417 6.29733 22.8417 6.39645 22.6671L8.45815 18.7591C8.55727 18.5844 8.43833 18.3442 8.24008 18.3442H4.1365C3.93826 18.3442 3.81932 18.5626 3.91844 18.7591L5.98014 22.6671H5.96032Z" fill="#EDEDED"/>
<path d="M11.3302 23.4758C11.5285 23.4758 11.6474 23.2575 11.5483 23.061L9.48658 19.153C9.38746 18.9783 9.14957 18.9783 9.05045 19.153L6.98875 23.061C6.88963 23.2356 7.00858 23.4758 7.20682 23.4758H11.3104H11.3302Z" fill="#EDEDED"/>
<path d="M9.06969 28.5843C9.16881 28.759 9.4067 28.759 9.50582 28.5843L11.5675 24.6763C11.6666 24.5016 11.5477 24.2615 11.3495 24.2615H7.24588C7.04764 24.2615 6.92869 24.4798 7.02782 24.6763L9.08952 28.5843H9.06969Z" fill="#EDEDED"/>
<path d="M3.91844 28.978C3.81932 29.1526 3.93826 29.3928 4.1365 29.3928H8.24008C8.43833 29.3928 8.55727 29.1745 8.45815 28.978L6.39645 25.07C6.29733 24.8953 6.05944 24.8953 5.96032 25.07L3.89862 28.978H3.91844Z" fill="#EDEDED"/>
<path d="M5.96032 34.5015C6.05944 34.6762 6.29733 34.6762 6.39645 34.5015L8.45815 30.5935C8.55727 30.4189 8.43833 30.1787 8.24008 30.1787H4.1365C3.93826 30.1787 3.81932 30.397 3.91844 30.5935L5.98014 34.5015H5.96032Z" fill="#EDEDED"/>
<path d="M45.4582 29.7736H45.9063V18.2033H44.5059V23.6188L44.6553 26.9272L37.0558 18.2218H36.5703V29.7551H37.952V24.2102L37.84 21.0497L45.4582 29.7736ZM56.2506 26.9087L57.6137 29.7551H59.0514V29.5703L53.6739 18.1663H53.039L47.6055 29.5703V29.7551H49.0619L50.425 26.9087H56.2506ZM53.3378 20.3288L55.7838 25.7258H50.8918L53.3378 20.3288ZM59.7796 26.613C59.8543 28.9788 62.3004 30.0138 64.4663 29.9584C66.5763 29.903 68.985 29.0158 68.985 26.5391C68.985 23.9884 66.819 23.5633 64.5037 23.3046C63.0846 23.1197 61.4041 23.0643 61.4041 21.3454C61.4041 19.8298 63.0099 19.2938 64.2796 19.2568C65.6053 19.2568 67.1738 19.7189 67.3045 21.179H68.6115C68.5368 18.9426 66.2588 17.963 64.2423 18.0185C62.1883 18.0185 60.0037 19.0905 60.0037 21.3639C60.0037 23.6742 62.1323 24.2102 64.2423 24.432C65.8294 24.6538 67.5846 24.6723 67.5846 26.5391C67.5285 28.221 65.8107 28.7016 64.429 28.757C62.9912 28.757 61.1987 28.1656 61.1054 26.613H59.761H59.7796ZM80.2442 29.7551V18.2218H78.8438V23.0828H72.682V18.2218H71.3003V29.7551H72.682V24.3396H78.8438V29.7551H80.2442ZM85.3417 26.2249C84.3334 26.2249 83.4558 26.2249 82.4662 26.2249C82.3915 31.3076 91.8955 31.1783 91.8955 26.3173C91.8955 23.434 89.6362 23.1382 87.3209 22.8795C86.2753 22.7686 85.3977 22.5837 85.4724 21.7151C85.5657 20.3473 88.7026 20.2179 88.7026 21.752C89.7109 21.752 90.4765 21.752 91.5408 21.752C91.6155 16.7801 82.5409 16.7801 82.6529 21.752C82.6902 24.2657 84.352 25.1159 86.8914 25.3007C88.0491 25.3747 89.0201 25.504 89.0201 26.2988C89.0201 27.648 85.379 27.685 85.379 26.2249H85.3417ZM95.7793 20.8464V29.7551C96.7689 29.7551 97.7399 29.7551 98.7295 29.7551V20.8464H101.586C101.586 19.9592 101.586 19.0905 101.586 18.2033H92.9225C92.9225 19.072 92.9225 19.9592 92.9225 20.8464H95.7793ZM114.675 23.9884C114.675 16.0039 102.707 16.0039 102.707 23.9884C102.707 31.9915 114.675 31.9915 114.675 23.9884ZM105.788 23.9884C105.788 19.8298 111.632 19.8298 111.632 23.9884C111.632 28.184 105.788 28.184 105.788 23.9884ZM124.497 25.6519C127.447 23.6742 126.607 18.2218 122.032 18.2033C120.333 18.2033 118.597 18.2033 116.916 18.2033C116.916 22.0662 116.916 25.9107 116.916 29.7366C117.887 29.7366 118.895 29.7366 119.904 29.7366V26.3358H121.453L123.451 29.7366H126.775V29.3115L124.497 25.6519ZM122.032 23.6927H119.904C119.904 22.7686 119.904 21.789 119.904 20.8464C120.594 20.8464 121.341 20.8279 122.032 20.8464C123.731 20.8648 123.657 23.6927 122.032 23.6927ZM135.85 18.2033C133.123 18.2033 131.275 18.2033 128.567 18.2033C128.567 22.0293 128.567 25.8922 128.567 29.7366C131.275 29.7366 133.273 29.7366 135.999 29.7366C135.999 28.8679 135.999 27.9807 135.999 27.112C134.244 27.112 133.254 27.112 131.536 27.112C131.536 26.4282 131.536 25.7628 131.536 25.0789H135.495C135.495 24.2102 135.495 23.3231 135.495 22.4544H131.536V20.8279C133.254 20.8279 134.113 20.8279 135.85 20.8279C135.85 19.9407 135.85 19.0535 135.85 18.1848V18.2033Z" fill="#ABADBA"/>
</svg>
